<svg width="66" height="66" viewBox="0 0 66 66" fill="none" xmlns="http://www.w3.org/2000/svg">
<g id="Group 6">
<rect id="Rectangle 16" x="0.84256" y="0.675659" width="64.7115" height="64.6575" rx="15" fill="#FF3C8A"/>
<g id="Icon Score">
<path id="Vector" d="M40.8973 21.6552H25.8305C25.5677 21.6555 25.3157 21.7599 25.1299 21.9456C24.9441 22.1313 24.8395 22.383 24.8392 22.6456V43.6423C24.8395 43.9049 24.9441 44.1566 25.1299 44.3423C25.3157 44.528 25.5677 44.6324 25.8305 44.6327H35.0153C35.1098 44.6327 35.2012 44.5989 35.273 44.5375L41.7498 38.9912C41.7933 38.954 41.8282 38.9078 41.8522 38.8559C41.8761 38.804 41.8885 38.7475 41.8886 38.6903V22.6456C41.8883 22.383 41.7837 22.1313 41.5979 21.9456C41.4121 21.7599 41.1601 21.6555 40.8973 21.6552ZM35.4118 43.3753V39.0864H40.4201L35.4118 43.3753ZM41.0956 38.2941H35.0153C34.9102 38.2941 34.8093 38.3358 34.7349 38.4101C34.6606 38.4844 34.6188 38.5852 34.6188 38.6903V43.8404H25.8305C25.7779 43.8404 25.7275 43.8195 25.6903 43.7824C25.6531 43.7453 25.6322 43.6949 25.6322 43.6423V22.6456C25.6322 22.593 25.6531 22.5426 25.6903 22.5055C25.7275 22.4684 25.7779 22.4475 25.8305 22.4475H40.8973C40.9499 22.4475 41.0003 22.4684 41.0375 22.5055C41.0747 22.5426 41.0956 22.593 41.0956 22.6456V38.2941Z" fill="white"/>
<path id="Vector_2" d="M33.5622 30.767H27.6147C27.5096 30.767 27.4087 30.8087 27.3344 30.883C27.26 30.9573 27.2182 31.0581 27.2182 31.1631C27.2182 31.2682 27.26 31.369 27.3344 31.4433C27.4087 31.5176 27.5096 31.5593 27.6147 31.5593H33.5622C33.6673 31.5593 33.7682 31.5176 33.8425 31.4433C33.9169 31.369 33.9587 31.2682 33.9587 31.1631C33.9587 31.0581 33.9169 30.9573 33.8425 30.883C33.7682 30.8087 33.6673 30.767 33.5622 30.767ZM33.5622 32.7478H27.6147C27.5096 32.7478 27.4087 32.7895 27.3344 32.8638C27.26 32.9381 27.2182 33.0389 27.2182 33.144C27.2182 33.249 27.26 33.3498 27.3344 33.4241C27.4087 33.4984 27.5096 33.5401 27.6147 33.5401H33.5622C33.6673 33.5401 33.7682 33.4984 33.8425 33.4241C33.9169 33.3498 33.9587 33.249 33.9587 33.144C33.9587 33.0389 33.9169 32.9381 33.8425 32.8638C33.7682 32.7895 33.6673 32.7478 33.5622 32.7478ZM33.5622 34.7286H27.6147C27.5096 34.7286 27.4087 34.7704 27.3344 34.8447C27.26 34.9189 27.2182 35.0197 27.2182 35.1248C27.2182 35.2299 27.26 35.3306 27.3344 35.4049C27.4087 35.4792 27.5096 35.521 27.6147 35.521H33.5622C33.6673 35.521 33.7682 35.4792 33.8425 35.4049C33.9169 35.3306 33.9587 35.2299 33.9587 35.1248C33.9587 35.0197 33.9169 34.9189 33.8425 34.8447C33.7682 34.7704 33.6673 34.7286 33.5622 34.7286ZM33.5622 36.7094H27.6147C27.5096 36.7094 27.4087 36.7512 27.3344 36.8255C27.26 36.8998 27.2182 37.0005 27.2182 37.1056C27.2182 37.2107 27.26 37.3114 27.3344 37.3857C27.4087 37.46 27.5096 37.5018 27.6147 37.5018H33.5622C33.6673 37.5018 33.7682 37.46 33.8425 37.3857C33.9169 37.3114 33.9587 37.2107 33.9587 37.1056C33.9587 37.0005 33.9169 36.8998 33.8425 36.8255C33.7682 36.7512 33.6673 36.7094 33.5622 36.7094ZM33.6216 27.0878L33.6203 27.085L32.3227 24.3402C32.2906 24.2723 32.2399 24.2149 32.1764 24.1747C32.1129 24.1345 32.0393 24.1131 31.9641 24.1132C31.8888 24.1133 31.8151 24.1349 31.7516 24.1754C31.6881 24.2159 31.6375 24.2736 31.6057 24.3418L30.3266 27.0789C30.3246 27.083 30.3226 27.0868 30.321 27.0907L29.6345 28.5607C29.6115 28.608 29.5982 28.6593 29.5952 28.7118C29.5923 28.7642 29.5999 28.8167 29.6175 28.8663C29.635 28.9158 29.6623 28.9613 29.6977 29.0002C29.733 29.0391 29.7758 29.0705 29.8234 29.0928C29.871 29.115 29.9226 29.1275 29.9752 29.1296C30.0277 29.1318 30.0801 29.1234 30.1294 29.1051C30.1787 29.0868 30.2238 29.0588 30.2622 29.0229C30.3006 28.987 30.3314 28.9438 30.3529 28.8959L30.9407 27.6373H33.0043L33.6 28.8975C33.6449 28.9925 33.7258 29.0658 33.8248 29.1013C33.9238 29.1368 34.0329 29.1315 34.128 29.0866C34.2231 29.0418 34.2965 28.961 34.332 28.8621C34.3675 28.7631 34.3622 28.6542 34.3173 28.5591L33.6216 27.0878ZM31.3109 26.8449L31.9663 25.4415L32.6304 26.8449H31.3109ZM37.1306 25.2206C37.1306 25.1156 37.0889 25.0148 37.0145 24.9405C36.9401 24.8662 36.8393 24.8245 36.7341 24.8245H35.9411V24.0322C35.9411 23.9271 35.8994 23.8263 35.825 23.752C35.7507 23.6777 35.6498 23.636 35.5447 23.636C35.4395 23.636 35.3386 23.6777 35.2643 23.752C35.1899 23.8263 35.1482 23.9271 35.1482 24.0322V24.8245H34.3552C34.25 24.8245 34.1492 24.8662 34.0748 24.9405C34.0004 25.0148 33.9587 25.1156 33.9587 25.2206C33.9587 25.3257 34.0004 25.4265 34.0748 25.5008C34.1492 25.5751 34.25 25.6168 34.3552 25.6168H35.1482V26.4091C35.1482 26.5142 35.1899 26.615 35.2643 26.6893C35.3386 26.7636 35.4395 26.8053 35.5447 26.8053C35.6498 26.8053 35.7507 26.7636 35.825 26.6893C35.8994 26.615 35.9411 26.5142 35.9411 26.4091V25.6168H36.7341C36.8393 25.6168 36.9401 25.5751 37.0145 25.5008C37.0889 25.4265 37.1306 25.3257 37.1306 25.2206ZM38.7166 30.767H36.7341C36.629 30.767 36.5281 30.8087 36.4538 30.883C36.3794 30.9573 36.3376 31.0581 36.3376 31.1631V33.144C36.3376 33.249 36.3794 33.3498 36.4538 33.4241C36.5281 33.4984 36.629 33.5401 36.7341 33.5401H38.7166C38.8218 33.5401 38.9226 33.4984 38.997 33.4241C39.0713 33.3498 39.1131 33.249 39.1131 33.144V31.1631C39.1131 31.0581 39.0713 30.9573 38.997 30.883C38.9226 30.8087 38.8218 30.767 38.7166 30.767ZM38.3201 32.7478H37.1306V31.5593H38.3201V32.7478ZM38.7166 34.7286H36.7341C36.629 34.7286 36.5281 34.7704 36.4538 34.8447C36.3794 34.9189 36.3376 35.0197 36.3376 35.1248V37.1056C36.3376 37.2107 36.3794 37.3114 36.4538 37.3857C36.5281 37.46 36.629 37.5018 36.7341 37.5018H38.7166C38.8218 37.5018 38.9226 37.46 38.997 37.3857C39.0713 37.3114 39.1131 37.2107 39.1131 37.1056V35.1248C39.1131 35.0197 39.0713 34.9189 38.997 34.8447C38.9226 34.7704 38.8218 34.7286 38.7166 34.7286ZM38.3201 36.7094H37.1306V35.521H38.3201V36.7094Z" fill="white"/>
</g>
</g>
</svg>
