<svg width="66" height="66" viewBox="0 0 66 66" fill="none" xmlns="http://www.w3.org/2000/svg">
<g id="Group 6">
<rect id="Rectangle 16" x="0.889938" y="0.675659" width="64.7115" height="64.6575" rx="15" fill="#008BD8"/>
<g id="Icon Certicate">
<path id="Vector" d="M39.1273 30.8704V25.0956" stroke="white" stroke-miterlimit="10" stroke-linecap="round" stroke-linejoin="round"/>
<path id="Vector_2" d="M35.9505 41.2792H22.9942C22.3797 41.2792 21.887 40.7869 21.887 40.1729V19.4485C21.887 19.0141 22.2406 18.6608 22.6754 18.6608H32.3796" stroke="white" stroke-miterlimit="10" stroke-linecap="round" stroke-linejoin="round"/>
<path id="Vector_3" d="M32.3813 18.6581V24.3095C32.3813 24.7445 32.735 25.0972 33.1698 25.0972H39.1294L32.3813 18.6581Z" stroke="white" stroke-miterlimit="10" stroke-linecap="round" stroke-linejoin="round"/>
<path id="Vector_4" d="M23.9832 23.4598H29.7491" stroke="white" stroke-miterlimit="10" stroke-linecap="round" stroke-linejoin="round"/>
<path id="Vector_5" d="M23.9832 28.2205H35.7546" stroke="white" stroke-miterlimit="10" stroke-linecap="round" stroke-linejoin="round"/>
<path id="Vector_6" d="M23.9832 31.8295H35.4416" stroke="white" stroke-miterlimit="10" stroke-linecap="round" stroke-linejoin="round"/>
<path id="Vector_7" d="M33.2839 35.4403H23.9855" stroke="white" stroke-miterlimit="10" stroke-linecap="round" stroke-linejoin="round"/>
<g id="Group">
<path id="Vector_8" d="M43.831 36.136C43.831 38.1864 42.6658 39.9652 40.9603 40.8409C40.7686 40.9432 40.5703 41.0326 40.3667 41.1085C39.8683 41.2897 39.3461 41.3976 38.8166 41.4289C38.7262 41.4341 38.6299 41.4341 38.5383 41.4341H38.5279C38.3192 41.4341 38.1111 41.4236 37.9076 41.3964C37.3871 41.3372 36.8788 41.1985 36.4004 40.9852C36.2999 40.9425 36.2018 40.8943 36.1065 40.8409C35.24 40.3975 34.5129 39.7234 34.0055 38.8932C33.4981 38.0629 33.2302 37.1087 33.2312 36.136C33.2312 33.2092 35.6039 30.8373 38.5279 30.8373C39.2244 30.8371 39.914 30.9741 40.5575 31.2403C41.201 31.5065 41.7856 31.8968 42.2781 32.3889C42.7706 32.8809 43.1612 33.4651 43.4276 34.1081C43.6941 34.751 43.8312 35.4401 43.831 36.136Z" stroke="white" stroke-miterlimit="10" stroke-linecap="round" stroke-linejoin="round"/>
<path id="Vector_9" d="M36.1075 40.8386L35.9509 41.2788L34.084 46.6308H37.4352L38.5252 41.4352" stroke="white" stroke-miterlimit="10" stroke-linecap="round" stroke-linejoin="round"/>
<path id="Vector_10" d="M40.9595 40.8386L42.9771 46.6308H39.626L38.5476 41.4352" stroke="white" stroke-miterlimit="10" stroke-linecap="round" stroke-linejoin="round"/>
</g>
</g>
</g>
</svg>
