<svg width="66" height="66" viewBox="0 0 66 66" fill="none" xmlns="http://www.w3.org/2000/svg">
<g id="Group 6">
<rect id="Rectangle 16" x="0.667969" y="0.675659" width="64.7115" height="64.6575" rx="15" fill="#FF3C8A"/>
<g id="Icon E learning">
<path id="Vector" d="M40.4359 23.1644C40.4631 23.2266 40.5037 23.2821 40.5547 23.3269C40.6057 23.3718 40.666 23.4049 40.7312 23.4239C40.7964 23.443 40.865 23.4475 40.9322 23.4372C40.9994 23.4269 41.0635 23.402 41.12 23.3643C41.1765 23.3265 41.224 23.2768 41.2592 23.2188C41.2944 23.1607 41.3164 23.0956 41.3237 23.0281C41.331 22.9606 41.3234 22.8923 41.3014 22.828C41.2794 22.7638 41.2436 22.7051 41.1964 22.6562C41.1208 22.5777 41.0199 22.5283 40.9115 22.5166C40.8031 22.5049 40.694 22.5317 40.6033 22.5923C40.5126 22.6528 40.4462 22.7433 40.4156 22.8479C40.385 22.9525 40.3922 23.0645 40.4359 23.1644ZM42.2976 23.1644C42.3248 23.2266 42.3654 23.2821 42.4164 23.3269C42.4675 23.3718 42.5277 23.4049 42.5929 23.4239C42.6582 23.443 42.7268 23.4475 42.794 23.4372C42.8611 23.4269 42.9252 23.402 42.9817 23.3643C43.0382 23.3265 43.0857 23.2768 43.1209 23.2188C43.1561 23.1607 43.1781 23.0956 43.1854 23.0281C43.1927 22.9606 43.1851 22.8923 43.1631 22.828C43.1411 22.7638 43.1053 22.7051 43.0582 22.6562C42.9825 22.5777 42.8817 22.5283 42.7732 22.5166C42.6648 22.5049 42.5557 22.5317 42.465 22.5923C42.3744 22.6528 42.3079 22.7433 42.2773 22.8479C42.2467 22.9525 42.2539 23.0645 42.2976 23.1644ZM44.2667 22.6562C44.1788 22.744 44.1294 22.8631 44.1294 22.9872C44.1294 23.1114 44.1788 23.2304 44.2667 23.3182C44.3545 23.406 44.4737 23.4553 44.598 23.4553C44.7222 23.4553 44.8414 23.406 44.9292 23.3182C45.0171 23.2304 45.0665 23.1114 45.0665 22.9872C45.0665 22.8631 45.0171 22.744 44.9292 22.6562C44.8414 22.5684 44.7222 22.5191 44.598 22.5191C44.4737 22.5191 44.3545 22.5684 44.2667 22.6562ZM44.598 24.3858H31.5331C31.4094 24.3858 31.2907 24.435 31.2032 24.5224C31.1157 24.6098 31.0665 24.7284 31.0665 24.8521V33.7101C31.0665 33.8337 31.1157 33.9523 31.2032 34.0398C31.2907 34.1272 31.4094 34.1763 31.5331 34.1763H44.598C44.7217 34.1763 44.8404 34.1272 44.9279 34.0398C45.0154 33.9523 45.0646 33.8337 45.0646 33.7101V24.8521C45.0646 24.7284 45.0154 24.6098 44.9279 24.5224C44.8404 24.435 44.7217 24.3858 44.598 24.3858ZM44.1313 33.2439H31.9997V25.3183H44.1313V33.2439ZM31.5331 36.5074H38.0655C38.1893 36.5074 38.308 36.4582 38.3955 36.3708C38.483 36.2834 38.5321 36.1648 38.5321 36.0412C38.5321 35.9175 38.483 35.7989 38.3955 35.7115C38.308 35.6241 38.1893 35.5749 38.0655 35.5749H31.5331C31.4094 35.5749 31.2907 35.6241 31.2032 35.7115C31.1157 35.7989 31.0665 35.9175 31.0665 36.0412C31.0665 36.1648 31.1157 36.2834 31.2032 36.3708C31.2907 36.4582 31.4094 36.5074 31.5331 36.5074ZM42.7315 37.4398H31.5331C31.4094 37.4398 31.2907 37.4889 31.2032 37.5763C31.1157 37.6638 31.0665 37.7824 31.0665 37.906C31.0665 38.0296 31.1157 38.1482 31.2032 38.2357C31.2907 38.3231 31.4094 38.3722 31.5331 38.3722H42.7315C42.8553 38.3722 42.974 38.3231 43.0615 38.2357C43.149 38.1482 43.1981 38.0296 43.1981 37.906C43.1981 37.7824 43.149 37.6638 43.0615 37.5763C42.974 37.4889 42.8553 37.4398 42.7315 37.4398Z" fill="white"/>
<path id="Vector_2" d="M45.5312 20.6561H20.3347C19.9636 20.6565 19.6077 20.804 19.3453 21.0662C19.0829 21.3284 18.9353 21.6839 18.9349 22.0548V39.3046C18.9353 39.6754 19.0829 40.031 19.3453 40.2932C19.6077 40.5554 19.9636 40.7029 20.3347 40.7032H21.0873C20.911 41.9616 20.9011 43.2377 21.0579 44.4987C21.073 44.6046 21.1241 44.7021 21.2026 44.7749C21.2811 44.8476 21.3822 44.8912 21.4891 44.8982C22.0415 44.9351 22.5683 44.9523 23.0708 44.9523C29.0513 44.9523 31.5373 42.5429 31.6484 42.4315C31.7054 42.3745 31.7466 42.3038 31.7681 42.2262C31.7897 42.1486 31.7907 42.0667 31.7711 41.9886C31.6598 41.5466 31.5067 41.1162 31.3138 40.7032H45.5312C45.9023 40.7029 46.2581 40.5554 46.5206 40.2932C46.783 40.031 46.9306 39.6754 46.931 39.3046V22.0548C46.9306 21.6839 46.783 21.3284 46.5206 21.0662C46.2581 20.804 45.9023 20.6565 45.5312 20.6561ZM21.9417 43.991C21.8344 42.784 21.6757 39.0086 23.6354 37.4314C23.7952 37.7029 24.0209 37.9298 24.2916 38.0912C24.5623 38.2526 24.8693 38.3433 25.1843 38.3549C25.4993 38.3666 25.8122 38.2987 26.0941 38.1577C26.376 38.0166 26.6177 37.8069 26.7971 37.5479C27.6435 37.9535 29.9947 39.2906 30.7898 41.9387C30.0666 42.5 27.3449 44.2576 21.9417 43.991ZM26.9254 28.958C25.5266 28.4764 24.1235 29.6111 23.6527 30.6797C23.4396 30.581 23.2089 30.526 22.9741 30.5181C22.7394 30.5102 22.5055 30.5494 22.2862 30.6335C22.0669 30.7176 21.8668 30.8448 21.6976 31.0076C21.5285 31.1705 21.3938 31.3655 21.3015 31.5813C20.8839 29.9375 23.6032 28.0176 23.6373 28.0428C23.6957 28.0053 23.7451 27.9553 23.7819 27.8964C25.2503 25.549 26.4635 25.2185 27.0309 25.2185C27.1389 25.2166 27.2466 25.2308 27.3505 25.2604C28.4806 26.1789 27.3897 28.2083 26.9254 28.958ZM22.7881 33.3823C22.4661 32.9525 21.8106 32.2229 22.3168 31.7086C22.3926 31.6231 22.4857 31.5546 22.5899 31.5078C22.6942 31.461 22.8073 31.4369 22.9216 31.4371C23.0359 31.4373 23.1489 31.4618 23.253 31.5091C23.3571 31.5563 23.4499 31.6251 23.5253 31.7109C23.5821 31.7655 23.6517 31.805 23.7277 31.8257C23.8037 31.8464 23.8837 31.8476 23.9603 31.8294C24.037 31.8112 24.1078 31.774 24.1663 31.7213C24.2248 31.6686 24.2691 31.602 24.2952 31.5277C24.4464 31.0088 25.3838 29.3109 26.827 29.91C29.8053 36.2533 26.5372 36.1861 22.7881 33.3823ZM26.1859 36.0882C26.2055 36.3315 26.1866 36.5763 26.1299 36.8136C26.059 37.0099 25.9242 37.1767 25.7471 37.2873C25.5701 37.398 25.3609 37.4459 25.1533 37.4236C24.9457 37.4013 24.7515 37.31 24.602 37.1643C24.4525 37.0186 24.3563 36.827 24.3288 36.6202C24.3106 36.6351 24.3227 35.4621 24.3195 35.4239C24.9074 35.7315 25.5357 35.9551 26.1859 36.0882ZM45.9978 39.3051C45.9976 39.4287 45.9484 39.5472 45.861 39.6346C45.7735 39.722 45.6549 39.7712 45.5312 39.7713H30.7898C29.8675 38.4192 28.594 37.3436 27.106 36.6603C27.1197 36.4834 27.1241 36.306 27.1191 36.1288C30.0307 35.4784 28.8082 31.8489 27.6771 29.517C28.245 28.6461 29.7745 25.7714 27.7942 24.4352C27.7028 24.39 25.5499 23.3755 23.0452 27.316C21.1419 28.5435 18.535 31.7058 22.1656 34.0774C22.5579 34.3746 22.9653 34.6513 23.3863 34.9064V36.4607C22.2848 37.2541 21.5288 38.4384 21.273 39.7708H20.3347C20.211 39.7707 20.0924 39.7215 20.0049 39.6341C19.9174 39.5467 19.8682 39.4282 19.8681 39.3046V22.0548C19.8682 21.9312 19.9174 21.8126 20.0049 21.7252C20.0924 21.6378 20.211 21.5887 20.3347 21.5886H45.5312C45.6549 21.5887 45.7735 21.6378 45.861 21.7252C45.9484 21.8126 45.9976 21.9312 45.9978 22.0548V39.3051Z" fill="white"/>
<path id="Vector_3" d="M36.5473 31.7491C36.6529 31.8116 36.7732 31.8451 36.896 31.8462C37.0187 31.8472 37.1396 31.8158 37.2463 31.7552L40.3044 30.0363C40.4131 29.9752 40.5035 29.8863 40.5664 29.7788C40.6294 29.6712 40.6626 29.5489 40.6626 29.4243C40.6626 29.2998 40.6294 29.1775 40.5664 29.0699C40.5035 28.9624 40.4131 28.8735 40.3044 28.8124L37.2463 27.094C37.1394 27.0339 37.0186 27.0029 36.896 27.0039C36.7733 27.005 36.6531 27.0381 36.5472 27.0999C36.4413 27.1617 36.3535 27.2502 36.2924 27.3565C36.2313 27.4627 36.1992 27.5831 36.1991 27.7057V31.143C36.1984 31.2658 36.2303 31.3865 36.2914 31.493C36.3526 31.5994 36.4408 31.6878 36.5473 31.7491ZM37.1325 28.1001L39.4891 29.4246L37.1325 30.7486V28.1001Z" fill="white"/>
</g>
</g>
</svg>
